<?xml version="1.0" standalone="no"?>
<!DOCTYPE svg PUBLIC "-//W3C//DTD SVG 1.1//EN" "http://www.w3.org/Graphics/SVG/1.1/DTD/svg11.dtd" >
<svg xmlns="http://www.w3.org/2000/svg">
<metadata>Generated by IcoMoon</metadata>
<defs>
<font id="icomoon" horiz-adv-x="1024">
<font-face units-per-em="1024" ascent="960" descent="-64" />
<missing-glyph horiz-adv-x="1024" />
<glyph unicode="&#x20;" horiz-adv-x="0" d="" />
<glyph unicode="&#x64;" glyph-name="bulb" d="M512 960c-194 0-352-158-352-352 0-128 118-266 160-386 66-178 58-286 192-286 136 0 126 106 192 286 42 120 160 258 160 386 0 194-158 352-352 352zM594 90l-158-20c-6 16-12 36-18 62 0 0-2 0-2 0l198 24c-2-8-4-18-8-28-4-14-8-26-12-38zM408 162c-6 20-12 40-20 62h248c-4-12-8-24-10-34zM512 0c-32 0-48 4-64 40l136 16c-20-52-34-56-72-56zM662 288h-300c-16 34-34 70-54 102-40 76-84 152-84 218 0 158 130 288 288 288s288-130 288-288c0-64-44-142-84-218-20-34-38-68-54-102zM512 800c-106 0-192-86-192-192 0-8 8-16 16-16s16 8 16 16c0 88 72 160 160 160 8 0 16 8 16 16s-8 16-16 16z" />
<glyph unicode="&#x65;" glyph-name="asterisk" d="M884 360c16-10 28-24 34-44 4-20 2-38-8-56l-36-62c-10-18-24-30-44-34-20-6-38-4-56 6l-152 88v-176c0-20-8-36-22-52-14-14-32-20-52-20h-72c-20 0-38 6-52 20-14 16-22 32-22 52v176l-152-88c-18-10-36-12-56-6-20 4-34 16-44 34l-36 62c-10 18-12 36-8 56 6 20 18 34 34 44l152 88-152 88c-16 10-28 24-34 44-4 20-2 38 8 56l36 62c10 18 24 30 44 34 20 6 38 4 56-6l152-88v176c0 20 8 36 22 52 14 14 32 20 52 20h72c20 0 38-6 52-20 14-16 22-32 22-52v-176l152 88c18 10 36 12 56 6 20-4 34-16 44-34l36-62c10-18 12-36 8-56-6-20-18-34-34-44l-152-88z" />
<glyph unicode="&#xe900;" glyph-name="primitive-dot" horiz-adv-x="511" d="M-0.088 448c0 141.5 114.5 256 256 256 141.438 0 256-114.5 256-256s-114.562-256-256-256c-141.499 0-256 114.5-256 256z" />
<glyph unicode="&#xe901;" glyph-name="alphabet-letters-a-b-and-c" d="M245.734 602.771c-14.413 0.627-32.882-0.778-55.452-4.201-22.545-3.479-44.319-11.287-65.297-23.503-21.015-12.219-39.16-30.401-54.513-54.513-15.335-24.112-23.018-56.832-23.018-98.197 0-31.939 4.712-58.711 14.109-80.316s22.222-38.856 38.503-51.702c16.285-12.825 35.076-21.606 56.384-26.295 21.301-4.712 43.853-6.121 67.671-4.216 20.053 1.86 38.837 5.944 56.384 12.216 17.529 6.271 35.076 16.285 52.612 30.056 6.242-13.148 13.775-23.807 22.563-31.939 8.759-8.153 19.4-12.238 31.931-12.238 6.271 0 12.997 1.904 20.197 5.644 7.218 3.761 13.966 8.781 20.215 15.052 6.26 6.249 11.107 12.975 14.575 20.215 3.442 7.203 4.825 14.234 4.238 21.132l-0.969 1.86c-5.027 22.552-8.447 41.82-10.355 57.801-1.86 15.977-2.803 33.366-2.803 52.157 0 11.896 0 24.721 0 38.514 0 14.402 0.312 27.877 0.939 40.415 0.616 8.153 0.932 15.98 0.932 23.484 0 8.131 0 15.657 0 22.552v7.504c0 9.405-0.132 21.129-0.448 35.267-0.352 14.080-2.356 28.655-6.128 43.681-3.761 15.030-9.577 29.737-17.375 44.176-7.838 14.402-18.956 27.245-33.348 38.533-14.421 11.269-32.746 20.219-54.968 26.772-22.259 6.576-49.365 8.913-81.292 7.031-21.947-1.255-42.628-4.521-62.028-9.863-19.408-5.299-36.966-12.502-52.601-21.584-15.683-9.1-28.834-19.764-39.483-31.961-10.66-12.216-17.547-25.84-20.663-40.87 0.609-8.781 1.556-13.775 2.822-15.052 3.134-6.876 6.888-14.421 11.269-22.552 4.4-8.131 10.355-12.197 17.863-12.197h0.928c3.783-0.609 9.093-0.8 15.98-0.455 6.906 0.305 12.549 1.728 16.931 4.216 2.488 1.255 4.976 2.983 7.504 5.167 2.488 2.187 4.998 4.257 7.533 6.117 7.508 6.267 17.661 13.148 30.526 20.652 12.825 7.526 33.344 12.219 61.562 14.12 17.529 0.627 31.77-0.932 42.763-4.693 10.935-3.761 19.4-8.931 25.378-15.503 5.955-6.576 10.003-13.947 12.197-22.079 2.176-8.131 3.288-15.977 3.288-23.484-8.77 3.134-19.257 5.776-31.454 7.981-12.26 2.136-27.447 3.846-45.604 5.1zM321.849 479.684c1.244-3.156 2.176-7.049 2.84-11.764 0.598-4.671 0.932-9.863 0.932-15.503 0-10.014-1.284-20.806-3.772-32.434-2.51-11.588-7.838-22.706-15.98-33.344-10.678-8.153-22.706-15.030-36.188-20.655-13.481-5.644-28.966-8.476-46.503-8.476-22.563 0-40.254 6.117-53.078 18.336-12.854 12.197-19.275 28.655-19.275 49.324 0 21.301 9.709 39.938 29.146 55.918 19.419 15.962 44.785 23.939 76.118 23.939 13.166 0 25.194-2.51 36.166-7.504 10.953-5.012 20.798-10.957 29.594-17.837zM491.079 488.556c3.761-2.51 7.313-4.22 10.689-5.225 2.803-3.42 6.392-5.68 10.755-6.84 4.378-1.123 8.843-1.409 13.522-0.763 4.576 0.646 9.155 2.092 13.753 4.429 4.543 2.26 8.172 5.266 10.909 8.913 6.803-13.911 16.189-25.326 28.2-34.221 12.006-8.891 27.036-17.382 45.086-25.495 23.048-10.318 46.495-15.43 70.416-15.316 23.925 0.092 46.723 4.671 68.42 13.661 21.624 9.008 41.42 22.193 59.283 39.71 17.896 17.463 32.166 38.173 42.899 62.116l7.904 17.613c10.942 24.361 16.685 48.392 17.254 72.031 0.532 23.602-3.156 45.585-11.096 65.973-7.922 20.409-19.837 38.323-35.645 53.849-15.845 15.489-34.544 27-56.127 34.526-15.052 5.148-29.946 7.599-44.653 7.427-14.747-0.209-27.15-1.255-37.278-3.251 1.992 5.662 4.179 11.155 6.612 16.589 2.433 5.416 4.961 11.041 7.618 16.931l20.655 46.077c3.647 8.131 8.095 17.1 13.32 26.963 5.225 9.845 9.724 17.745 13.47 23.635 2.070 3.402 4.561 7.185 7.508 11.287 0.701 4.029-0.136 8.491-2.565 13.379-2.433 4.862-5.016 8.454-7.753 10.81-4.161 3.989-9.863 7.658-17.077 10.887-7.221 3.229-15.067 5.148-23.484 5.662-8.458 0.514-16.931-1.101-25.385-4.884-8.531-3.783-15.602-10.887-21.378-21.338-3.534-5.471-9.005-15.485-16.3-30.097-7.394-14.593-15.694-31.616-24.93-51.034-9.287-19.441-19.114-40.437-29.447-62.894-10.377-22.497-20.391-44.576-30.119-66.218-4.047-9.085-9.177-19.896-15.408-32.588-6.231-12.674-12.938-25.8-20.105-39.406-8.018-15.408-15.808-30.724-23.484-45.982-7.676-15.294-14.138-28.787-19.408-40.547-2.433-5.416-4.418-10.069-5.9-14.043-1.482-3.952-2.822-7.827-3.989-11.628-4.921-9.728-7.599-17.896-8.131-24.435-0.484-6.576 0.352-11.97 2.506-16.208 2.158-4.201 5.093-7.566 8.884-10.054zM635.826 629.866l1.842 4.088c4.656 10.355 9.691 19.778 15.067 28.233 5.431 8.399 11.287 16.626 17.595 24.684 15.18 7.221 30.023 12.157 44.407 14.63 14.421 2.488 28.177 0.818 41.266-5.075 14.48-6.462 26.035-16.571 34.849-30.269 8.796-13.698 10.487-30.724 5.148-51.13 0.741-1.937 0.837-4.998 0.382-9.082-0.514-4.124-1.46-8.722-2.906-13.757-1.427-5.093-3.402-10.318-5.816-15.694-2.451-5.431-4.671-10.41-6.708-14.913-12.843-26.24-30.42-44.539-52.671-54.876-22.266-10.355-44.917-10.395-67.961-0.059-11.764 5.321-20.769 13.265-27.077 23.961-6.344 10.696-12.16 21.606-17.503 32.68l-0.363 0.95c3.273 20.729 10.153 42.617 20.45 65.628zM800.657 255.97c-20.655-5.662-40.265-14.839-58.843-27.645-18.549-12.806-34.526-28.882-47.959-48.205-13.379-19.286-22.82-39.237-28.159-59.87-5.357-20.633-6.686-40.87-3.897-60.648 2.679-19.8 9.482-38.474 20.351-56.017 10.81-17.555 25.935-32.548 45.471-45.027 12.102-7.79 25.345-13.606 39.729-17.404 14.443-3.82 28.387-5.493 41.989-5.093 13.566 0.455 25.69 3.247 36.327 8.436 10.641 5.167 18.299 12.883 22.956 23.026 2.715 5.607 3.574 11.841 2.583 18.659-1.027 6.88-4.407 12.542-10.223 17.081-3.079 2.392-6.212 3.879-9.368 4.447-3.17 0.514-7.963 0.532-14.421 0.059-11.060-0.723-22.651-0.363-34.753 1.064-12.105 1.46-22.024 4.671-29.737 9.574-9.841 7.163-17.382 15.522-22.611 25.081-5.225 9.596-8.172 19.896-8.891 30.97-0.8 11.060 0.851 22.497 4.825 34.261 3.952 11.797 10.373 23.33 19.187 34.654 7.486 9.577 16.34 18.263 26.545 26.013 10.164 7.75 20.574 13.603 31.025 17.518 10.528 3.93 20.729 5.871 30.665 5.871 9.882-0.037 18.622-2.965 26.145-8.854 6.862-5.339 11.328-12.157 13.434-20.424 2.11-8.245 3.288-17.158 3.515-26.754-2.697-5.603-2.47-11.283 0.723-17.077 3.189-5.798 6.84-10.318 11.001-13.548 1.347-1.064 4.407-2.070 9.137-3.020 4.789-0.969 10.073-1.387 15.98-1.273 5.853 0.092 11.628 0.95 17.327 2.583 5.684 1.596 10.414 4.521 14.234 8.722 6.631 6.972 10.373 16.035 11.324 27.15 0.972 11.115-0.686 22.743-4.976 34.926-4.334 12.175-10.869 24.053-19.764 35.663-8.873 11.61-19.646 21.587-32.452 29.924-17.177 11.214-36.063 17.94-56.586 20.219-20.527 2.275-41.178 0.605-61.833-5.038zM520.188 259.335c-0.928 0.11-1.974 0.15-3.115 0.15-3.479 0-6.961 0-10.443 0-3.486 0-6.792-0.396-9.926-1.196-3.134-0.818-5.911-2.319-8.341-4.521-2.433-2.205-4.359-5.53-5.721-9.918-1.167-1.842-2.055-3.42-2.631-4.712-0.58-1.255-0.646-3.079-0.169-5.357 1.376-5.585 3.75-9.35 7.133-11.324 3.343-1.996 7.475-2.969 12.34-2.969 3.247 0 6.374 0 9.397 0 3.229 0 6.48 0.114 9.728 0.345 3.247 0.228 6.381 0.396 9.386 0.514 3.002 0.095 6.157 0.172 9.386 0.172h4.866v-19.496c0-0.683 0-1.611 0-2.752 0-0.95-0.095-1.996-0.345-3.134-0.228-1.864-0.415-3.78-0.532-5.735-0.114-1.978-0.154-4.22-0.154-6.788 0-6.249 0.972-11.951 2.928-17.059 1.974-5.112 6.099-8.245 12.351-9.386 6.744-0.705 12.652 0.873 17.745 4.712 5.112 3.816 7.658 9.214 7.658 16.186 0 4.183-0.059 8.399-0.154 12.693-0.132 4.293-0.323 8.399-0.532 12.351-0.228 3.251-0.363 6.249-0.363 9.045 0 2.774 0 5.68 0 8.7h27.836c3.952 0 7.412 0.114 10.454 0.363 2.98 0.209 5.776 0.873 8.322 1.901 2.565 1.064 4.862 2.796 6.972 5.225 2.088 2.433 4.047 5.856 5.908 10.241l0.363 0.363c1.842 3.251 2.792 6.385 2.792 9.386 0 2.092-0.473 3.897-1.405 5.42-0.932 1.497-2.070 2.66-3.479 3.475-1.405 0.818-2.888 1.446-4.521 1.919-1.633 0.455-3.115 0.818-4.517 1.042-1.864 0.228-3.897 0.382-6.080 0.514-2.205 0.114-4.712 0.172-7.486 0.172-3.728 0-7.64-0.059-11.819-0.172-4.183-0.132-8.249-0.301-12.16-0.514-1.882-0.246-3.724-0.341-5.585-0.341-1.596 0-3.269 0-4.862 0 0.209 1.842 0.283 2.525 0.191 2.070-0.154-0.459-0.191 0.228-0.191 2.088v20.16c0 0.455 0.037 1.196 0.191 2.238 0.092 1.068 0.15 1.919 0.15 2.624 0.228 3.002 0.305 6.363 0.172 10.069-0.114 3.728-0.587 7.203-1.387 10.454s-2.282 5.966-4.356 8.172c-2.066 2.205-5.112 3.288-9.041 3.288-1.882 0.723-4.356 1.16-7.486 1.405-3.119 0.228-5.398 0.228-6.788 0-4.139-0.701-6.954-2.51-8.337-5.394-1.387-2.928-2.224-5.853-2.451-8.895-0.213-1.842-0.418-3.875-0.536-6.080-0.114-2.205-0.15-4.712-0.15-7.486 0-3.724 0.077-7.636 0.15-11.819 0.114-4.161 0.323-8.227 0.536-12.157 0-1.178 0.059-2.91 0.191-5.247 0.114-2.319 0.191-4.047 0.191-5.207h-19.496c-0.917 0.029-1.849 0.066-2.781 0.202z" />
<glyph unicode="&#xe902;" glyph-name="Survey" d="M0 448v-479.284h1024v55.617h-968.383v902.952h-55.617v-479.284zM158.671 618.285c-22.083-7.197-37.623-22.737-44.166-44.003-11.287-36.642 11.287-74.755 48.746-82.116 9.488-1.963 18.484-1.636 30.753 0.818 4.58 0.981 5.398 0.491 8.833-5.235 2.127-3.435 6.87-10.96 10.633-16.849 13.086-20.12 27.972-43.348 38.604-60.197 11.614-18.648 16.031-25.355 35.496-55.78 7.361-11.614 13.413-21.592 13.413-22.247s-2.944-4.744-6.38-9.16c-7.197-9.16-14.068-26.009-15.54-38.277-3.272-27.645 14.886-60.197 40.567-72.792 51.691-25.355 110.742 13.741 106.817 70.339-0.491 6.707-2.127 15.54-3.599 19.629l-2.617 7.361 4.58 3.762c2.454 2.127 6.87 5.398 9.815 7.361 4.907 3.435 92.749 67.394 96.184 70.175 0.981 0.818 6.707 5.071 12.923 9.651l11.45 8.342 10.633-5.725c22.737-12.105 46.456-10.469 66.413 4.744l5.725 4.253 5.398-3.435c4.417-3.108 50.382-31.898 110.742-69.684 9.488-5.889 18.157-11.287 19.466-12.105 1.799-1.145 1.309-3.599-2.454-13.413-4.253-10.633-4.744-14.231-4.744-29.281 0-12.268 0.981-19.793 3.108-26.173 11.614-34.679 39.259-56.107 75.082-58.397 59.215-3.762 103.218 52.181 85.388 108.943-7.034 22.083-22.574 39.913-44.166 50.219-14.231 6.87-27.645 9.488-42.694 8.342-13.086-0.981-30.589-7.197-40.567-14.395-3.599-2.617-7.361-4.744-8.342-4.744-1.963 0-134.788 82.443-141.168 87.678-0.327 0.164 0.164 4.417 1.309 9.488 3.272 15.704-1.799 34.188-13.577 48.746-17.503 21.919-53.49 27.645-77.373 12.268-6.87-4.417-16.521-14.068-20.611-20.938-7.197-11.45-9.488-29.935-5.889-45.638 1.309-5.889 1.472-8.67 0.164-9.488-0.981-0.654-3.762-2.617-6.052-4.417-2.454-1.799-8.342-6.052-12.923-9.651-25.355-18.812-107.962-79.008-111.397-81.135-3.762-2.127-4.417-2.127-7.852 1.145-7.197 6.543-23.065 13.577-35.006 15.213-10.633 1.472-17.666 0.981-34.188-2.454-4.744-0.981-5.235-0.491-16.358 17.176-6.216 9.815-13.413 21.102-15.867 25.027-2.454 3.762-6.707 10.633-9.488 15.049-2.781 4.58-10.469 16.685-17.176 26.99-18.812 28.953-40.567 62.978-44.493 69.684l-3.435 6.052 5.398 8.015c23.228 33.697 12.759 77.7-22.737 95.693-10.633 5.562-12.923 6.052-27.154 6.543-8.506 0.164-17.339-0.164-19.629-0.981z" />
<glyph unicode="&#xe903;" glyph-name="scroll-icon-upDown" d="M495 956.2c-5.4-2.6-45-40.8-122.4-118.4-120-120.6-118.6-119-118.6-135.8 0-15.2 11-31.8 24.8-38.2 10-4.6 24.8-4.8 34.8-0.8 5 2.2 37.4 33.2 103 98.6l95.4 95.4 95.6-95.4c65.6-65.8 97.8-96.4 102.8-98.6 10-4 24.8-3.8 34.8 0.8 13.8 6.4 24.8 23 24.8 38.2 0 16.8 1.4 15.2-118.6 135.8-77.4 77.6-117 115.8-122.4 118.4-4.4 2-12 3.8-17 3.8s-12.6-1.8-17-3.8zM363.8 485.4c-4.8-2.6-11.4-8.6-14.8-13.2-5.4-7.8-6-10-6-24.2s0.6-16.4 6-24.2c3.4-4.6 10-10.6 14.8-13.2l9-4.6 282.4 1 7.4 5c4.2 2.8 10 8.6 13 12.8 4.8 7 5.4 9.8 5.4 23.4 0 14-0.6 16.2-6 24-3.2 4.6-10 10.6-14.8 13.2l-8.8 4.6h-278.8l-8.8-4.6zM278.8 232.2c-13.8-6.4-24.8-23-24.8-38.2 0-16.8-1.4-15.2 118.6-135.8 77.4-77.6 117-115.8 122.4-118.4 10.2-4.8 23.8-4.8 34 0 5.4 2.6 45 40.8 122.4 118.4 120 120.6 118.6 119 118.6 135.8 0 15.2-11 31.8-24.8 38.2-10 4.6-24.8 4.8-34.8 0.8-5-2.2-37.4-33.2-102.8-98.6l-95.6-95.4-95.4 95.4c-65.6 65.4-98 96.4-103 98.6-10 4-24.8 3.8-34.8-0.8z" />
<glyph unicode="&#xe904;" glyph-name="google" d="M522.2 521.2v-175.6h290.4c-11.8-75.4-87.8-220.8-290.4-220.8-174.8 0-317.4 144.8-317.4 323.2s142.6 323.2 317.4 323.2c99.4 0 166-42.4 204-79l139 133.8c-89.2 83.6-204.8 134-343 134-283 0-512-229-512-512s229-512 512-512c295.4 0 491.6 207.8 491.6 500.2 0 33.6-3.6 59.2-8 84.8l-483.6 0.2z" />
<glyph unicode="&#xe905;" glyph-name="facebook" d="M928 960h-832c-52.8 0-96-43.2-96-96v-832c0-52.8 43.2-96 96-96h416v448h-128v128h128v64c0 105.8 86.2 192 192 192h128v-128h-128c-35.2 0-64-28.8-64-64v-64h192l-32-128h-160v-448h288c52.8 0 96 43.2 96 96v832c0 52.8-43.2 96-96 96z" />
<glyph unicode="&#xe906;" glyph-name="logout" d="M640 813.412v-135.958c36.206-15.804 69.5-38.408 98.274-67.18 60.442-60.44 93.726-140.8 93.726-226.274s-33.286-165.834-93.726-226.274c-60.44-60.44-140.798-93.726-226.274-93.726s-165.834 33.286-226.274 93.726c-60.44 60.44-93.726 140.8-93.726 226.274s33.286 165.834 93.726 226.274c28.774 28.774 62.068 51.378 98.274 67.182v135.956c-185.048-55.080-320-226.472-320-429.412 0-247.424 200.578-448 448-448 247.424 0 448 200.576 448 448 0 202.94-134.95 374.332-320 429.412zM448 960h128v-512h-128z" />
<glyph unicode="&#xe907;" glyph-name="person" d="M512 362q108 0 225-47t117-123v-86h-684v86q0 76 117 123t225 47zM512 448q-70 0-120 50t-50 120 50 121 120 51 120-51 50-121-50-120-120-50z" />
<glyph unicode="&#xe908;" glyph-name="quiz_Q_A" horiz-adv-x="1018" d="M184.32 958.080c-47.36-5.92-93.12-28.16-123.68-59.84-52-54.56-73.28-147.68-53.6-235.84 19.36-86.56 75.84-143.84 159.84-161.92 13.76-2.88 21.28-3.52 49.12-3.52 28 0 35.2 0.64 49.44 3.68 19.52 4.16 34.4 9.12 50.24 16.8l11.36 5.44 16.96-14.88c20.96-18.4 36.96-30.56 44.16-33.6 21.28-8.8 44.96-1.12 55.36 17.76 8.8 16.16 7.040 34.72-4.8 49.76-4.48 5.6-37.92 36.64-44.96 41.44-0.32 0.32 3.2 6.72 7.68 14.56 14.72 25.76 24.96 58.080 29.12 92.16 2.88 23.52 0.96 75.84-3.36 96.32-18.4 86.24-67.84 142.56-144.64 164.64-27.36 8-68 10.88-98.24 7.040zM242.88 863.84c16.32-3.84 30.72-12.32 44.32-26.080 14.56-14.56 21.92-27.2 28.8-48.96 12.32-39.36 11.36-93.28-2.24-128.48l-1.76-4.48-12.8 10.56c-17.12 13.92-26.88 18.72-40 19.68-14.24 0.96-22.24-1.6-31.68-10.080-9.76-8.8-13.92-18.4-13.76-32 0.16-13.76 4.8-22.88 19.2-37.6 6.56-6.88 11.52-12.8 10.72-13.28-4.16-2.56-24.48-4.64-35.52-3.68-16.96 1.6-24.64 3.68-38.56 10.24-29.92 14.4-51.36 48-59.36 93.12-3.040 16.96-2.72 56.64 0.64 73.76 13.12 66.4 53.28 102.88 110.4 99.84 7.68-0.48 17.44-1.6 21.6-2.56zM682.4 892.48c-10.72-3.84-17.6-11.84-20.64-24-1.44-6.56 1.76-17.6 7.36-24.32 9.12-11.040 3.2-10.72 174.24-10.24 140.64 0.48 152.96 0.64 157.6 3.2 18.080 9.92 21.44 35.040 6.72 48.8-9.28 8.64-5.28 8.48-169.12 8.32-102.56 0-152.96-0.64-156.16-1.76zM997.92 889.92c0.96-0.64-69.6-0.96-156.96-0.64l-158.88 0.32-5.44-3.68c-7.040-4.64-11.040-12.8-11.040-22.4 0-8.64 1.6-12.48 7.84-19.36 3.52-3.84 3.68-4.32 0.64-2.4-1.92 1.12-4.96 4.8-6.88 8.32-2.88 4.96-3.36 8-2.88 15.68 0.8 10.56 3.84 16 12.48 21.92l5.28 3.52h156.96c86.4 0 157.76-0.64 158.88-1.28zM992.8 836.8c-2.56-0.64-72.16-1.12-154.4-0.96l-149.6 0.16 150.4 0.8c82.72 0.48 152.16 0.96 154.4 0.96 3.36 0.16 3.2 0-0.8-0.96zM680 746.24c-11.68-5.12-17.92-14.4-18.24-27.040-0.16-11.040 5.6-21.12 15.040-26.4l7.2-4 149.44-0.48c96.8-0.32 152.48 0.16 158.24 1.28 10.4 1.92 18.080 7.2 21.76 15.040 7.68 16.32 1.76 33.76-14.24 41.12-6.080 2.88-14.080 3.040-160 2.88-133.6 0-154.4-0.32-159.2-2.4zM995.52 745.44c3.36-0.8 8-3.36 10.4-5.6l4.48-4-6.080 4c-3.36 2.24-9.12 4.48-12.8 4.96s-74.88 0.8-158.24 0.48c-83.36-0.32-150.4 0-148.8 0.64 4.64 1.76 304.32 1.44 311.040-0.48zM913.28 691.68c-40.16-0.32-106.4-0.32-147.2 0-40.8 0.16-7.84 0.32 73.12 0.32s114.24-0.16 74.080-0.32zM515.68 601.92c-16.64-5.92-29.76-18.88-35.2-34.72-3.52-10.56-2.24-31.2 2.56-40.48 5.44-10.56 15.52-20.48 25.6-25.44 7.52-3.68 11.2-4.32 22.56-4.48 11.68 0 14.88 0.64 22.72 4.48 20.16 9.92 33.44 32.8 31.040 53.6-2.080 19.040-15.84 37.92-32.96 45.6-10.080 4.48-25.92 5.12-36.32 1.44zM680 601.44c-10.4-4.16-17.92-15.68-18.24-27.84 0-9.76 3.52-16.64 12.32-23.84l6.24-4.96 156.8-0.48c156.8-0.32 156.96-0.32 164 3.040 7.36 3.52 13.6 12.32 15.68 21.6 1.28 6.24-1.92 19.040-5.28 21.76-2.080 1.76-2.24 1.76-1.12-0.32 0.64-1.28-0.64-0.64-2.88 1.44-2.4 2.080-3.84 4.48-3.36 5.28 0.48 0.64-1.6 2.4-4.8 3.68-4.8 2.080-27.36 2.4-160.48 2.24-98.56 0-156.32-0.64-158.88-1.6zM917.28 600.48c-42.4-0.32-112.16-0.32-155.2 0-42.88 0.16-8.16 0.32 77.12 0.32 85.44 0 120.48-0.16 78.080-0.32zM996 547.2c-1.76-0.8-72.32-1.28-156.8-1.12l-153.6 0.32 154.4 0.8c84.96 0.48 155.52 0.96 156.8 1.12s0.96-0.32-0.8-1.12zM233.12 398.4c-11.040-2.88-21.28-9.28-30.56-19.2-15.52-16.8-17.12-20.96-81.28-194.88-59.52-161.92-63.68-174.080-64.8-192.16-1.12-17.6 1.12-25.6 9.28-34.56 16.96-18.4 53.76-20.48 70.24-4 8.8 8.8 15.2 22.24 24.8 52l8.16 25.6h164.48l7.36-24.16c12.32-39.68 18.56-50.72 33.92-59.040 7.68-4.32 9.92-4.8 23.68-4.8 12.48 0 16.64 0.64 23.2 3.68 9.6 4.48 16 10.24 20.48 18.72 4.96 8.96 4.8 31.68-0.16 49.28-4.64 16.32-108.64 300.16-119.040 324.64-13.44 31.68-27.52 48.8-46.080 55.84-9.92 3.84-33.76 5.44-43.68 3.040zM278.080 208.32c13.28-43.84 24.32-80.48 24.32-81.6 0-1.44-12-1.92-52.16-1.92-41.12 0-52 0.48-51.36 2.080 0.32 0.96 12.48 37.76 26.88 81.44 14.4 43.84 26.56 79.52 27.040 79.52 0.48 0.16 11.84-35.68 25.28-79.52zM677.28 337.44c-7.36-3.68-12.96-11.040-15.040-20.32-1.76-8 1.92-20.8 7.68-26.24 10.080-9.76 2.080-9.28 168.64-9.28 111.52 0 153.92 0.48 158.56 1.92 7.84 2.4 16.48 11.84 18.88 20.64 1.44 5.44 1.44 8.64-0.32 14.88-1.12 4.48-2.72 7.84-3.36 7.52-0.8-0.32-3.36 1.28-5.6 3.52-2.4 2.080-5.76 4.64-7.52 5.6s-2.4 1.92-1.28 1.92c1.12 0 4.48-2.24 7.68-4.96 3.040-2.72 5.6-4.32 5.6-3.52 0 2.080-4.48 5.92-10.72 9.12-4.64 2.24-20.48 2.56-160.8 2.56-154.72 0-155.68 0-162.4-3.36zM917.28 338.080c-42.4-0.32-112.16-0.32-155.2 0-42.88 0.16-8.16 0.32 77.12 0.32 85.44 0 120.48-0.16 78.080-0.32zM915.68 283.68c-41.44-0.32-109.92-0.32-152 0-42.080 0.16-8 0.32 75.52 0.32 83.68 0 118.080-0.16 76.48-0.32zM683.84 195.36c-10.88-2.72-19.36-12.32-22.080-24.96-1.12-5.44 2.56-19.36 4.96-18.88 0.96 0.16 3.68-1.92 6.24-4.8 2.56-2.72 3.2-4 1.44-2.72s-4 3.52-5.12 4.8c-1.28 1.44-1.92 1.6-2.080 0.48 0-3.52 9.6-9.92 17.92-11.68 6.080-1.28 51.040-1.6 159.68-1.28 139.2 0.48 151.52 0.64 156.16 3.2 21.28 11.68 21.12 42.080-0.16 53.76-4.32 2.4-18.72 2.72-158.4 3.040-84.48 0-155.84-0.32-158.56-0.96zM680 48.64c-3.040-1.28-7.68-4.32-10.080-6.72-5.28-4.96-9.76-18.88-8.16-25.44 1.92-8.32 8.16-17.28 14.72-20.96l6.4-3.52h156.16c141.28 0 156.8 0.16 161.44 2.56 6.24 3.2 10.72 7.040 10.72 9.12 0 0.96-1.92-0.16-4.32-2.4-2.56-2.4-6.56-5.12-8.96-5.92-3.040-1.28-53.76-1.76-158.88-1.76-126.72 0-155.2 0.32-159.52 2.24-5.28 2.080-13.92 10.88-13.92 14.080 0 0.96 1.6-0.64 3.68-3.68 7.84-11.68-3.2-11.040 169.44-11.040 105.44 0 156.16 0.48 159.2 1.76 2.4 0.8 6.4 3.52 8.8 5.76 2.24 2.24 4.8 3.84 5.6 3.68 2.24-0.48 5.28 12.8 4.32 19.040-1.6 10.080-6.88 17.44-15.68 21.76l-8 4h-153.6c-133.76-0.16-154.56-0.48-159.36-2.56zM996 47.84c6.4-1.76 16.8-10.72 16.8-14.56 0-1.12-1.44 0.16-3.2 3.040-1.6 2.88-5.44 6.4-8.32 8-4.96 2.72-15.040 2.88-160.48 3.68l-155.2 0.8 152 0.48c106.56 0.16 153.92-0.16 158.4-1.44zM517.6 43.2c-16-4.96-31.84-20.32-36.96-35.84-4.16-12.16-2.56-31.36 3.36-42.24 5.76-10.56 14.56-18.56 26.24-24.16 11.84-5.6 30.72-5.92 41.92-0.64 8.8 4 19.68 13.44 24.8 21.44 21.6 34.4-2.56 80.64-43.040 82.4-6.4 0.32-13.6-0.16-16.32-0.96z" />
<glyph unicode="&#xe909;" glyph-name="cross" d="M476 958.8c-3.8-0.4-15.6-1.8-26-3-66.2-7.6-141.8-34-202-70.6-46.4-28.4-99.2-74.6-133.4-117.2-60-74.4-97.6-161.8-110.8-258-3.6-24.8-3.6-99.2 0-124 13.4-97 52.6-187.6 112.8-260.6 84.2-102 201.2-167.2 333.4-185.6 24.8-3.6 99.2-3.6 124 0 55.4 7.6 109 23.6 156.8 46.8 53 25.8 93.8 54.4 136 95.4 45.4 44.2 76.6 87 104.4 143 25.2 51 41.2 103.2 49 161 3.4 24.8 3.4 99.2 0 124-8 58.8-24.4 111.6-50 162.6-28.6 57-58 97.4-103.4 141.4-79.2 77-176.6 125-285.8 141.2-19.2 2.8-90.6 5.4-105 3.6zM574.8 912.8c104-12.8 200.4-61 274.4-137 24.4-25.2 36.4-40.2 55.2-68.8 44.8-68.2 70.2-145.2 75.6-230 6.4-102-20.2-203.8-75.6-288-73.4-112-188.2-185-323.4-205.2-36.2-5.4-96.6-5.8-132-1-107.6 15-199.2 60.8-273.2 136.6-34 34.8-56.6 65.4-78.4 106.6-36.6 68.8-54 140.4-54 222 0 82.6 18.2 156.2 56 226 34.6 64.2 89.8 124.4 151.6 165.4 68.8 45.8 152.4 73 237 77.4 21 1 61.2-0.8 86.8-4zM352 619l-15-15 146-146-141-141 30-30 141 141 151-151 30 30-151 151 141 141-30 30-141-141-146 146-15-15z" />
<glyph unicode="&#xe90a;" glyph-name="inbox-download" d="M480 448l-104 104-24-24 144-144 144 144-24 24-104-104v352h-32v-352zM640 384h216.801l-140 224h-172.801v32h192l160-256v-288h-800v288l160 256h192v-32h-172.801l-140-224h216.801v-64c0-35.346 28.667-64 63.917-64h160.167c35.3 0 63.917 28.407 63.917 64v64z" />
<glyph unicode="&#xe90b;" glyph-name="inbox-upload" d="M480 800l-104-104-24 24 144 144 144-144-24-24-104 104v-352h-32v352zM640 384h216.801l-140 224h-172.801v32h192l160-256v-288h-800v288l160 256h192v-32h-172.801l-140-224h216.801v-64c0-35.346 28.667-64 63.917-64h160.167c35.3 0 63.917 28.407 63.917 64v64z" />
<glyph unicode="&#xe90c;" glyph-name="dot-map" horiz-adv-x="878" d="M585.143 438.857c0-80.571-65.714-146.286-146.286-146.286s-146.286 65.714-146.286 146.286 65.714 146.286 146.286 146.286 146.286-65.714 146.286-146.286zM438.857 749.714c-171.429 0-310.857-139.429-310.857-310.857s139.429-310.857 310.857-310.857 310.857 139.429 310.857 310.857-139.429 310.857-310.857 310.857zM877.714 438.857c0-242.286-196.571-438.857-438.857-438.857s-438.857 196.571-438.857 438.857 196.571 438.857 438.857 438.857v0c242.286 0 438.857-196.571 438.857-438.857z" />
<glyph unicode="&#xe90d;" glyph-name="filled-map-dot" horiz-adv-x="1031" d="M778.374 443.984v0c0 142.309-115.364 257.673-257.673 257.673v0c-142.309 0-257.673-115.364-257.673-257.673v0c0-142.309 115.364-257.673 257.673-257.673v0c142.309 0 257.673 115.364 257.673 257.673zM890.828 450.677v0c0 208.112-167.21 376.82-373.473 376.82v0c-206.264 0-373.473-168.708-373.473-376.82v0c0-208.112 167.21-376.82 373.473-376.82v0c206.264 0 373.473 168.708 373.473 376.82zM1030.693 448c0-282.77-230.728-512-515.346-512v0c-284.618 0-515.346 229.23-515.346 512v0c0 282.77 230.728 512 515.346 512v0c284.618 0 515.346-229.23 515.346-512v0z" />
<glyph unicode="&#xe90e;" glyph-name="image" d="M959.884 832c0.040-0.034 0.082-0.076 0.116-0.116v-767.77c-0.034-0.040-0.076-0.082-0.116-0.116h-895.77c-0.040 0.034-0.082 0.076-0.114 0.116v767.772c0.034 0.040 0.076 0.082 0.114 0.114h895.77zM960 896h-896c-35.2 0-64-28.8-64-64v-768c0-35.2 28.8-64 64-64h896c35.2 0 64 28.8 64 64v768c0 35.2-28.8 64-64 64v0zM832 672c0-53.020-42.98-96-96-96s-96 42.98-96 96 42.98 96 96 96 96-42.98 96-96zM896 128h-768v128l224 384 256-320h64l224 192z" />
<glyph unicode="&#xe90f;" glyph-name="images" horiz-adv-x="1152" d="M1088 832h-64v64c0 35.2-28.8 64-64 64h-896c-35.2 0-64-28.8-64-64v-768c0-35.2 28.8-64 64-64h64v-64c0-35.2 28.8-64 64-64h896c35.2 0 64 28.8 64 64v768c0 35.2-28.8 64-64 64zM128 768v-640h-63.886c-0.040 0.034-0.082 0.076-0.114 0.116v767.77c0.034 0.040 0.076 0.082 0.114 0.114h895.77c0.040-0.034 0.082-0.076 0.116-0.116v-63.884h-768c-35.2 0-64-28.8-64-64v0zM1088 0.116c-0.034-0.040-0.076-0.082-0.116-0.116h-895.77c-0.040 0.034-0.082 0.076-0.114 0.116v767.77c0.034 0.040 0.076 0.082 0.114 0.114h895.77c0.040-0.034 0.082-0.076 0.116-0.116v-767.768zM960 608c0-53.020-42.98-96-96-96s-96 42.98-96 96 42.98 96 96 96 96-42.98 96-96zM1024 64h-768v128l224 384 256-320h64l224 192z" />
<glyph unicode="&#xe910;" glyph-name="stats" d="M191.936 800h-31.584v-736h640v30.816l-607.872 1.568-0.544 703.616zM256.352 160h160v348l-160-160v-188zM448.352 160h160v316l-64-64-96 96v-348zM640.352 160h160v485.984l-160-160v-325.984zM428.384 605.856l115.84-115.2 228.736 227.584 58.688-59.008-1.408 140.768-141.28-0.736 54.944-55.104-199.744-200.32-118.048 118.496-179.936-179.328 30.048-29.184 152.16 152.032z" />
<glyph unicode="&#xe973;" glyph-name="user-plus" d="M384 224c0 151.234 95.874 280.486 230.032 330.2 16.28 36.538 25.968 77.164 25.968 117.8 0 159.058 0 288-192 288s-192-128.942-192-288c0-99.060 57.502-198.104 128-237.832v-52.78c-217.102-17.748-384-124.42-384-253.388h397.306c-8.664 30.53-13.306 62.732-13.306 96zM736 512c-159.058 0-288-128.942-288-288s128.942-288 288-288c159.056 0 288 128.942 288 288s-128.942 288-288 288zM896 192h-128v-128h-64v128h-128v64h128v128h64v-128h128v-64z" />
<glyph unicode="&#xea80;" glyph-name="embed2" horiz-adv-x="1280" d="M832 224l96-96 320 320-320 320-96-96 224-224zM448 672l-96 96-320-320 320-320 96 96-224 224zM701.298 809.481l69.468-18.944-191.987-704.026-69.468 18.944 191.987 704.026z" />
<glyph unicode="&#xf271;" glyph-name="calendar-plus-o" horiz-adv-x="951" d="M877.714 804.571q29.714 0 51.429-21.714t21.714-51.429v-731.429q0-29.714-21.714-51.429t-51.429-21.714h-804.571q-29.714 0-51.429 21.714t-21.714 51.429v731.429q0 29.714 21.714 51.429t51.429 21.714h73.143v54.857q0 37.714 26.857 64.571t64.571 26.857h36.571q37.714 0 64.571-26.857t26.857-64.571v-54.857h219.429v54.857q0 37.714 26.857 64.571t64.571 26.857h36.571q37.714 0 64.571-26.857t26.857-64.571v-54.857h73.143zM658.286 859.428v-164.571q0-8 5.143-13.143t13.143-5.143h36.571q8 0 13.143 5.143t5.143 13.143v164.571q0 8-5.143 13.143t-13.143 5.143h-36.571q-8 0-13.143-5.143t-5.143-13.143zM219.429 859.428v-164.571q0-8 5.143-13.143t13.143-5.143h36.571q8 0 13.143 5.143t5.143 13.143v164.571q0 8-5.143 13.143t-13.143 5.143h-36.571q-8 0-13.143-5.143t-5.143-13.143zM877.714 0v585.143h-804.571v-585.143h804.571zM512 329.143h128q8 0 13.143-5.143t5.143-13.143v-36.571q0-8-5.143-13.143t-13.143-5.143h-128v-128q0-8-5.143-13.143t-13.143-5.143h-36.571q-8 0-13.143 5.143t-5.143 13.143v128h-128q-8 0-13.143 5.143t-5.143 13.143v36.571q0 8 5.143 13.143t13.143 5.143h128v128q0 8 5.143 13.143t13.143 5.143h36.571q8 0 13.143-5.143t5.143-13.143v-128z" />
<glyph unicode="&#xf28d;" glyph-name="stop-circle" horiz-adv-x="878" d="M621.714 274.286v329.143c0 10.286-8 18.286-18.286 18.286h-329.143c-10.286 0-18.286-8-18.286-18.286v-329.143c0-10.286 8-18.286 18.286-18.286h329.143c10.286 0 18.286 8 18.286 18.286zM877.714 438.857c0-242.286-196.571-438.857-438.857-438.857s-438.857 196.571-438.857 438.857 196.571 438.857 438.857 438.857 438.857-196.571 438.857-438.857z" />
</font>
</defs>
</svg>
